<svg width="20" height="21" viewBox="0 0 20 21" fill="none" xmlns="http://www.w3.org/2000/svg">
<path d="M5.63217 18.8334H14.3655C16.6655 18.8334 17.5822 17.4251 17.6905 15.7084L18.1238 8.82508C18.2405 7.02508 16.8072 5.50008 14.9988 5.50008C14.4905 5.50008 14.0238 5.20841 13.7905 4.75841L13.1905 3.55008C12.8072 2.79175 11.8072 2.16675 10.9572 2.16675H9.04884C8.1905 2.16675 7.1905 2.79175 6.80717 3.55008L6.20717 4.75841C5.97384 5.20841 5.50717 5.50008 4.99884 5.50008C3.1905 5.50008 1.75717 7.02508 1.87384 8.82508L2.30717 15.7084C2.40717 17.4251 3.33217 18.8334 5.63217 18.8334Z" stroke="#40744D" stroke-width="1.5" stroke-linecap="round" stroke-linejoin="round"/>
<path d="M8.75 7.16675H11.25" stroke="#40744D" stroke-width="1.5" stroke-linecap="round" stroke-linejoin="round"/>
<path d="M9.9974 15.4999C11.4891 15.4999 12.7057 14.2833 12.7057 12.7916C12.7057 11.2999 11.4891 10.0833 9.9974 10.0833C8.50573 10.0833 7.28906 11.2999 7.28906 12.7916C7.28906 14.2833 8.50573 15.4999 9.9974 15.4999Z" stroke="#40744D" stroke-width="1.5" stroke-linecap="round" stroke-linejoin="round"/>
</svg>
