<svg width="20" height="20" viewBox="0 0 20 20" fill="none" xmlns="http://www.w3.org/2000/svg">
<path d="M14.1 6.00491V6.45552L14.5481 6.50222C15.7987 6.63253 16.6159 6.9972 17.135 7.55381C17.8791 8.36949 17.8892 9.48554 17.7884 10.3716L17.1291 15.4916L17.1291 15.4916L17.1281 15.5002C17.0336 16.3492 16.8176 17.1068 16.229 17.6651C15.6412 18.2227 14.5902 18.6667 12.6303 18.6667H7.37178C5.41192 18.6667 4.36109 18.2227 3.77345 17.6643C3.18486 17.105 2.9686 16.3452 2.87405 15.4913L2.87413 15.4913L2.87296 15.4822L2.2138 10.381C2.11237 9.48091 2.11528 8.3686 2.86625 7.55472C3.38531 6.9976 4.20279 6.6326 5.454 6.50222L5.90217 6.45552V6.00491V5.47331C5.90217 3.43321 7.60651 1.5382 9.59466 1.35174C10.7711 1.24489 11.8961 1.60649 12.7602 2.37349L12.7602 2.3735L12.7624 2.37542C13.6162 3.12438 14.1 4.1976 14.1 5.30833V6.00491ZM9.63705 1.62977L9.63453 1.63C8.69448 1.71707 7.84113 2.22085 7.22847 2.91215C6.61544 3.60388 6.2121 4.51808 6.2121 5.47331V5.94992V6.44992H6.7121H13.29H13.79V5.94992V5.30833C13.79 4.26619 13.3417 3.26802 12.5461 2.56836C11.7423 1.86053 10.7105 1.53581 9.63705 1.62977ZM6.61786 11.5552H6.62729C7.40856 11.5552 8.06968 10.9319 8.06968 10.1386C8.06968 9.34215 7.40527 8.72204 6.61786 8.72204C5.8366 8.72204 5.17547 9.34534 5.17547 10.1386C5.17547 10.9319 5.8366 11.5552 6.61786 11.5552ZM13.2146 11.5552H13.2241C14.0053 11.5552 14.6665 10.9319 14.6665 10.1386C14.6665 9.34215 14.002 8.72204 13.2146 8.72204C12.4334 8.72204 11.7722 9.34534 11.7722 10.1386C11.7722 10.9319 12.4334 11.5552 13.2146 11.5552Z" fill="#E94293" stroke="#E94293"/>
</svg>
