<svg width="20" height="20" viewBox="0 0 20 20" fill="none" xmlns="http://www.w3.org/2000/svg">
<path d="M16.4781 8.24164V8.24163H16.475H13.1083C12.4831 8.24163 12.1731 8.12707 12.0137 7.98595C11.8699 7.85876 11.75 7.61998 11.75 7.09163V3.31663C11.75 2.79348 11.8695 2.55355 12.0144 2.42478C12.1744 2.28261 12.4849 2.16663 13.1083 2.16663H16.475C17.0985 2.16663 17.4089 2.28261 17.5689 2.42478C17.7139 2.55355 17.8333 2.79348 17.8333 3.31663V7.09996C17.8333 7.62348 17.7137 7.86264 17.5697 7.99012C17.4107 8.13077 17.1013 8.24555 16.4781 8.24164Z" fill="#E94293" stroke="#E94293"/>
<path d="M17.8333 13.1083V16.475C17.8333 17.0874 17.7071 17.3879 17.5475 17.5475C17.3879 17.7071 17.0874 17.8333 16.475 17.8333H13.1083C12.4959 17.8333 12.1955 17.7071 12.0358 17.5475C11.8762 17.3879 11.75 17.0874 11.75 16.475V13.1083C11.75 12.4959 11.8762 12.1955 12.0358 12.0358C12.1955 11.8762 12.4959 11.75 13.1083 11.75H16.475C17.0874 11.75 17.3879 11.8762 17.5475 12.0358C17.7071 12.1955 17.8333 12.4959 17.8333 13.1083Z" fill="#E94293" stroke="#E94293"/>
<path d="M8.75033 7.09996V3.31663C8.75033 2.14163 8.21699 1.66663 6.89199 1.66663H3.52533C2.20033 1.66663 1.66699 2.14163 1.66699 3.31663V7.09163C1.66699 8.27496 2.20033 8.74163 3.52533 8.74163H6.89199C8.21699 8.74996 8.75033 8.27496 8.75033 7.09996Z" fill="#E94293"/>
<path d="M8.75033 16.475V13.1083C8.75033 11.7833 8.21699 11.25 6.89199 11.25H3.52533C2.20033 11.25 1.66699 11.7833 1.66699 13.1083V16.475C1.66699 17.8 2.20033 18.3333 3.52533 18.3333H6.89199C8.21699 18.3333 8.75033 17.8 8.75033 16.475Z" fill="#E94293"/>
</svg>
