<svg width="24" height="24" viewBox="0 0 24 24" fill="none" xmlns="http://www.w3.org/2000/svg">
<path d="M18.4356 9.81059L18.4357 9.8105C19.0217 9.22419 19.0218 8.27578 18.4356 7.68954C17.8493 7.10324 16.9008 7.10309 16.3145 7.68953C16.3145 7.68956 16.3145 7.68959 16.3145 7.68962L10.875 13.1289L8.68559 10.9395C8.09925 10.3531 7.15071 10.353 6.56445 10.9396C5.97816 11.5258 5.97819 12.4744 6.56454 13.0605C6.56457 13.0606 6.56459 13.0606 6.56462 13.0606L9.81448 16.3105C10.1067 16.6026 10.4913 16.7501 10.875 16.7501C11.2587 16.7501 11.6433 16.6026 11.9355 16.3105L18.4356 9.81059ZM0.5 12C0.5 5.65908 5.65908 0.5 12 0.5C18.3409 0.5 23.5 5.65908 23.5 12C23.5 18.3409 18.3409 23.5 12 23.5C5.65908 23.5 0.5 18.3409 0.5 12Z" stroke="black"/>
</svg>
