<svg width="24" height="24" viewBox="0 0 24 24" fill="none" xmlns="http://www.w3.org/2000/svg">
<path d="M14.0603 22H6.96984C5.33222 22 4 20.5982 4 18.875V8.28906C4 6.56589 5.33222 5.16406 6.96984 5.16406H14.0603C15.6979 5.16406 17.0302 6.56589 17.0302 8.28906V18.875C17.0302 20.5982 15.6979 22 14.0603 22ZM6.96984 6.72656C6.1511 6.72656 5.48492 7.42755 5.48492 8.28906V18.875C5.48492 19.7365 6.1511 20.4375 6.96984 20.4375H14.0603C14.8791 20.4375 15.5452 19.7365 15.5452 18.875V8.28906C15.5452 7.42755 14.8791 6.72656 14.0603 6.72656H6.96984ZM20 16.9219V5.125C20 3.40182 18.6678 2 17.0302 2H8.78886C8.37877 2 8.0464 2.34973 8.0464 2.78125C8.0464 3.21277 8.37877 3.5625 8.78886 3.5625H17.0302C17.8489 3.5625 18.5151 4.26349 18.5151 5.125V16.9219C18.5151 17.3534 18.8474 17.7031 19.2575 17.7031C19.6676 17.7031 20 17.3534 20 16.9219Z" fill="#292D32"/>
</svg>
