<svg width="140" height="140" viewBox="0 0 140 140" fill="none" xmlns="http://www.w3.org/2000/svg">
<circle cx="70" cy="70" r="70" fill="#E5F6FF"/>
<path d="M107.273 79.8708L85.5299 85.9639L66.025 91.4297L44.2822 97.5228C43.7611 97.6688 42.2501 97.6275 42.1033 97.1368L41.9631 96.341L40.6097 88.669C40.4579 88.1616 40.7876 87.6341 41.3324 87.5045C41.4501 87.4766 41.5679 87.4461 41.6854 87.4132C46.1322 86.1669 48.7554 81.8197 47.6438 77.6242C46.4318 73.0503 41.218 69.4504 36.4639 70.9882C36.4606 70.9894 35.8731 71.1522 35.87 71.1533C35.644 71.2267 35.5642 71.3865 35.5347 71.5054C35.4984 71.6523 35.5389 71.7369 35.4768 71.5202C35.472 71.5029 35.4664 71.4839 35.4599 71.4627L32.9941 63.2233C32.8471 62.7326 33.1504 62.2163 33.6715 62.0702L55.4143 55.9772L74.9192 50.5113L96.662 44.4182C96.6646 44.4174 96.6671 44.4168 96.6696 44.4163C96.7554 44.5087 96.8208 44.6193 96.8582 44.7444L99.2459 52.7135C99.3918 53.2 99.0556 53.7107 98.5104 53.8409C98.507 53.8417 98.5036 53.8425 98.5003 53.8434C93.584 55.0238 90.707 59.6195 92.1669 63.9633C92.7543 65.7112 93.9742 67.115 95.538 68.0337C97.6486 70.0011 100.807 70.845 103.884 69.9829C104.002 69.95 104.118 69.9148 104.233 69.8776C104.281 69.8623 104.33 69.8503 104.378 69.8419C104.865 69.7573 105.349 70.0268 105.487 70.4881L107.95 78.718C108.097 79.2087 107.794 79.7247 107.273 79.8708Z" fill="#E5F6FF"/>
<path d="M105.92 78.4422L83.9492 84.6065L64.2402 90.1363L42.2697 96.3006C42.1663 96.3296 42.0623 96.3427 41.9611 96.3411C41.5457 96.336 41.1732 96.09 41.0591 95.7088L38.6739 87.7487C38.5269 87.258 38.8654 86.7422 39.4154 86.6104C39.5343 86.5817 39.6532 86.5509 39.7721 86.5174C44.2653 85.2569 46.9582 81.0069 45.8874 76.9474C44.7676 72.7027 40.149 70.3273 35.5327 71.5055C35.5133 71.5103 35.4939 71.5153 35.4748 71.5203C35.2972 71.5667 35.1198 71.6186 34.9424 71.6756C34.9391 71.6764 34.9357 71.6775 34.9323 71.6787C34.3997 71.8507 33.8333 71.5932 33.6877 71.107L31.3 63.1376C31.1578 62.6629 31.4693 62.1586 31.9957 62.0108L53.9662 55.8466L73.6752 50.3168L95.6457 44.1525C96.033 44.0439 96.429 44.1586 96.6676 44.4164C96.7534 44.5088 96.8189 44.6194 96.8562 44.7445L99.2439 52.7136C99.3898 53.2001 99.0537 53.7108 98.5084 53.841C98.505 53.8418 98.5016 53.8426 98.4983 53.8435C93.582 55.0239 90.705 59.6196 92.1649 63.9634C92.7523 65.7113 93.9722 67.1151 95.536 68.0338C97.5364 69.2095 100.1 69.5912 102.622 68.8836C102.741 68.8501 102.858 68.8149 102.975 68.7772C103.512 68.6041 104.083 68.8649 104.23 69.3555L104.376 69.842L106.615 77.3154C106.758 77.7902 106.446 78.2945 105.92 78.4422Z" fill="#158FCF"/>
<path d="M42.6096 98.9966C41.812 98.9967 41.0702 98.4767 40.8321 97.6823L38.2038 88.9161C38.061 88.4399 38.1219 87.9212 38.371 87.493C38.6206 87.0638 39.0438 86.7515 39.532 86.6362C39.6392 86.6109 39.7477 86.5829 39.8547 86.5529C43.9174 85.4122 46.2488 81.3342 45.1622 77.2688C44.5915 75.1331 43.2141 73.3842 41.2839 72.3442C39.3642 71.3098 37.1541 71.1165 35.0606 71.7997L35.0501 71.8032C34.5747 71.9589 34.0665 71.9175 33.6205 71.686C33.1755 71.4551 32.8517 71.0654 32.7087 70.5886L30.0774 61.8121C29.9364 61.3421 29.9892 60.8477 30.226 60.4201C30.4622 59.9935 30.8527 59.6855 31.3255 59.5528L94.9721 41.6831C95.9387 41.4117 96.9591 41.9706 97.2465 42.929L99.8778 51.7055C100.02 52.1793 99.9592 52.6953 99.7111 53.1212C99.4623 53.5485 99.0406 53.8591 98.5543 53.9734L98.545 53.9756C96.4023 54.4819 94.6464 55.7861 93.6008 57.648C92.55 59.5191 92.3554 61.7034 93.053 63.7983C94.1525 67.1007 97.2222 69.2057 100.548 69.206C101.259 69.2061 101.982 69.1097 102.701 68.9079C102.808 68.878 102.915 68.8455 103.02 68.8113C103.498 68.6549 104.009 68.6969 104.457 68.9296C104.904 69.1619 105.229 69.5538 105.373 70.0329L108.001 78.7991C108.142 79.2691 108.089 79.7635 107.852 80.1912C107.616 80.6177 107.226 80.9257 106.753 81.0584L43.1064 98.9281C42.9411 98.9745 42.7741 98.9966 42.6096 98.9966ZM37.5423 69.7247C37.8477 69.7247 38.1534 69.7393 38.4595 69.7687C39.7361 69.8909 40.9569 70.2619 42.0878 70.8713C43.2236 71.4833 44.2071 72.3023 45.0111 73.3058C45.8443 74.3456 46.4435 75.5343 46.7922 76.8388C47.4273 79.2154 47.1094 81.6952 45.8967 83.8215C44.6811 85.953 42.6982 87.4957 40.3131 88.1653C40.1835 88.2017 40.0518 88.2357 39.9218 88.2664C39.8711 88.2784 39.8445 88.3084 39.8311 88.3314C39.8123 88.3637 39.8085 88.3995 39.82 88.4378L42.4483 97.204C42.4734 97.2879 42.5648 97.3391 42.6477 97.3157L106.294 79.4461C106.33 79.436 106.357 79.4149 106.375 79.3836C106.387 79.3612 106.399 79.3247 106.385 79.2775L103.757 70.5113C103.741 70.4579 103.703 70.4291 103.675 70.4144C103.646 70.3994 103.6 70.3853 103.546 70.403C103.419 70.4445 103.289 70.484 103.16 70.5203C100.779 71.1888 98.2565 70.914 96.0573 69.7465C93.8638 68.5821 92.2282 66.6566 91.4518 64.3246C91.0246 63.0413 90.8732 61.7255 91.0019 60.4136C91.1264 59.1458 91.5052 57.9406 92.1281 56.8316C92.7485 55.7268 93.5773 54.7776 94.5914 54.0104C95.641 53.2164 96.8399 52.6562 98.1548 52.3456C98.1553 52.3455 98.1557 52.3454 98.1562 52.3453L98.1665 52.3429C98.2139 52.3317 98.2388 52.3037 98.2514 52.2822C98.2687 52.2524 98.2722 52.2193 98.2615 52.1839L95.6301 43.4074C95.605 43.3235 95.5138 43.2723 95.4307 43.2956L31.7842 61.1651C31.7481 61.1753 31.721 61.1963 31.7036 61.2277C31.6913 61.25 31.6795 61.2866 31.6936 61.3338L34.325 70.1103C34.3399 70.1602 34.3747 70.1871 34.4012 70.2009C34.4285 70.215 34.4718 70.2283 34.5233 70.2115L34.5347 70.2077C35.5193 69.8864 36.5276 69.7247 37.5423 69.7247Z" fill="#158FCF"/>
<path d="M51.7032 56.8457C51.3399 56.8457 51.0045 56.6106 50.8955 56.2469L50.5343 55.0426C50.4014 54.5991 50.6554 54.1326 51.1017 54.0005C51.5481 53.8684 52.0176 54.1208 52.1506 54.5642L52.5117 55.7686C52.6446 56.212 52.3906 56.6786 51.9443 56.8107C51.864 56.8344 51.7829 56.8457 51.7032 56.8457Z" fill="#158FCF"/>
<path d="M60.7886 87.1494C60.4252 87.1494 60.0899 86.9143 59.9808 86.5506L59.2237 84.0253C59.0908 83.5818 59.3448 83.1153 59.7911 82.9832C60.2373 82.851 60.707 83.1035 60.8399 83.5469L61.5971 86.0723C61.73 86.5157 61.476 86.9823 61.0297 87.1143C60.9494 87.1381 60.8683 87.1494 60.7886 87.1494ZM58.5172 79.5734C58.1538 79.5734 57.8184 79.3383 57.7094 78.9746L56.9522 76.4493C56.8193 76.0059 57.0733 75.5394 57.5196 75.4073C57.9659 75.275 58.4355 75.5275 58.5685 75.971L59.3256 78.4963C59.4586 78.9397 59.2046 79.4063 58.7582 79.5383C58.678 79.5621 58.5968 79.5734 58.5172 79.5734ZM56.2457 71.9975C55.8824 71.9975 55.547 71.7624 55.4379 71.3987L54.6808 68.8734C54.5479 68.43 54.8019 67.9634 55.2482 67.8314C55.6946 67.6993 56.1641 67.9517 56.297 68.3951L57.0542 70.9204C57.1871 71.3638 56.9331 71.8304 56.4868 71.9625C56.4065 71.9862 56.3254 71.9975 56.2457 71.9975ZM53.9743 64.4216C53.6109 64.4216 53.2755 64.1865 53.1665 63.8228L52.4093 61.2975C52.2764 60.8541 52.5304 60.3875 52.9767 60.2555C53.423 60.1234 53.8926 60.3757 54.0256 60.8192L54.7827 63.3445C54.9156 63.7879 54.6616 64.2545 54.2153 64.3866C54.135 64.4103 54.054 64.4216 53.9743 64.4216Z" fill="#E5F6FF"/>
<path d="M62.6642 93.4044C62.3008 93.4044 61.9654 93.1692 61.8564 92.8056L61.4953 91.6012C61.3623 91.1578 61.6164 90.6912 62.0627 90.5591C62.5091 90.4271 62.9786 90.6795 63.1115 91.1229L63.4726 92.3272C63.6055 92.7707 63.3515 93.2372 62.9052 93.3693C62.8249 93.3931 62.7438 93.4044 62.6642 93.4044Z" fill="#158FCF"/>
<path d="M71.1618 82.4233C70.8703 82.499 70.5517 82.4784 70.2571 82.3426C69.584 82.0325 69.2914 81.2388 69.6035 80.57L81.3183 55.4737C81.6304 54.8049 82.4292 54.5142 83.1024 54.8244C83.7755 55.1345 84.0681 55.9281 83.7559 56.5969L72.0412 81.6933C71.8657 82.0693 71.5362 82.3259 71.1618 82.4233Z" fill="#E5F6FF"/>
<path d="M69.0694 68.2146C66.6133 68.8532 64.096 67.4016 63.4579 64.979C62.8199 62.5563 64.299 60.0659 66.7551 59.4274C69.2112 58.7888 71.7285 60.2403 72.3665 62.663C73.0045 65.0857 71.5254 67.5761 69.0694 68.2146ZM67.4353 62.0101C66.4126 62.276 65.7945 63.3046 66.0575 64.3032C66.3205 65.3017 67.3664 65.8978 68.3891 65.6319C69.4118 65.366 70.0299 64.3374 69.7669 63.3388C69.504 62.3403 68.458 61.7442 67.4353 62.0101Z" fill="#E5F6FF"/>
<path d="M86.6133 77.4211C84.1572 78.0596 81.6399 76.6081 81.0019 74.1855C80.3638 71.7628 81.8429 69.2724 84.299 68.6338C86.7551 67.9953 89.2724 69.4468 89.9104 71.8695C90.5485 74.2922 89.0694 76.7826 86.6133 77.4211ZM84.9793 71.2166C83.9566 71.4825 83.3385 72.5111 83.6014 73.5097C83.8644 74.5082 84.9104 75.1042 85.9331 74.8383C86.9557 74.5724 87.5738 73.5438 87.3109 72.5453C87.0479 71.5467 86.0019 70.9507 84.9793 71.2166Z" fill="#E5F6FF"/>
</svg>
