<svg width="24" height="24" viewBox="0 0 24 24" fill="none" xmlns="http://www.w3.org/2000/svg">
<path d="M16.5 6.75862C15.0174 5.65407 13.3677 5 11.5 5C7.5 5 4.5 8 2 12C3.33267 14.1323 4.80743 15.9804 6.5 17.2414" stroke="black" stroke-width="1.4" stroke-linecap="round" stroke-linejoin="round"/>
<path d="M9.5 18.9991C15 19.4991 19 15.9991 21.5 11.9991C20.1673 9.86684 19 8.99912 19 8.99912" stroke="black" stroke-width="1.4" stroke-linecap="round" stroke-linejoin="round"/>
<path d="M9.87823 14.1213C9.59965 13.8427 9.37867 13.512 9.22791 13.1481C9.07714 12.7841 8.99955 12.394 8.99955 12C8.99955 11.606 9.07714 11.2159 9.22791 10.8519C9.37867 10.488 9.59965 10.1573 9.87823 9.87868C10.1568 9.6001 10.4875 9.37913 10.8515 9.22836C11.2155 9.0776 11.6056 9 11.9995 9C12.3935 9 12.7836 9.0776 13.1476 9.22836C13.5116 9.37913 13.8423 9.6001 14.1209 9.87868L11.9995 12L9.87823 14.1213Z" stroke="black" stroke-width="1.4"/>
<line x1="19" y1="4.98995" x2="4.98995" y2="19" stroke="black" stroke-width="1.4" stroke-linecap="round"/>
<path d="M15.3633 12.6367C15.3633 12.6367 15.4266 13.5734 14.5532 14.4468C13.6799 15.3201 12.7432 15.2568 12.7432 15.2568" stroke="black" stroke-width="1.4" stroke-linecap="round"/>
</svg>
