<svg width="43" height="44" viewBox="0 0 43 44" fill="none" xmlns="http://www.w3.org/2000/svg">
<g clip-path="url(#clip0_376_6977)">
<path d="M27.869 14.2213L28.099 14.6981L28.6227 14.776L41.3403 16.6669L41.3404 16.6669C41.9427 16.7565 42.2471 17.5625 41.759 18.0494L32.5564 27.2281L32.191 27.5925L32.2763 28.1014L34.4487 41.0622C34.5674 41.77 33.864 42.1967 33.3488 41.9195L33.3487 41.9195L21.9737 35.8003L21.4999 35.5454L21.0262 35.8003L9.65121 41.9195C9.13589 42.1967 8.43257 41.7699 8.5512 41.0622L7.56496 40.8969L8.5512 41.0622L10.7236 28.1014L10.8089 27.5925L10.4436 27.2281L1.24096 18.0493C1.24095 18.0493 1.24094 18.0493 1.24093 18.0492C0.753087 17.5626 1.05706 16.7565 1.65972 16.6668C1.65974 16.6668 1.65976 16.6668 1.65978 16.6668L14.3773 14.7759L14.901 14.698L15.131 14.2212L20.8184 2.42916C20.8185 2.42915 20.8185 2.42915 20.8185 2.42914C21.102 1.84133 21.8979 1.84133 22.1815 2.42914C22.1815 2.42915 22.1815 2.42915 22.1815 2.42916L27.869 14.2213Z" stroke="#FFB025" stroke-width="2"/>
</g>
<defs>
<clipPath id="clip0_376_6977">
<rect width="43" height="44" fill="white"/>
</clipPath>
</defs>
</svg>
