<svg width="44" height="44" viewBox="0 0 44 44" fill="none" xmlns="http://www.w3.org/2000/svg">
<g clip-path="url(#clip0_376_6979)">
<path d="M28.5421 14.2294L28.7748 14.7008L29.295 14.7764L42.3084 16.6674L42.3084 16.6674C42.9689 16.7633 43.2329 17.5752 42.7548 18.0413L33.3381 27.22L32.9616 27.587L33.0505 28.1052L35.2734 41.066C35.3863 41.7239 34.6957 42.2257 34.1049 41.915L33.6395 42.8002L34.1049 41.915L22.4653 35.7958L21.9999 35.5511L21.5346 35.7958L9.89509 41.915C9.3042 42.2257 8.61365 41.7238 8.72649 41.066L7.74089 40.8969L8.7265 41.066L10.9494 28.1052L11.0383 27.587L10.6618 27.22L1.24521 18.0412C1.2452 18.0412 1.24519 18.0412 1.24519 18.0412C0.767232 17.5752 1.03088 16.7634 1.69163 16.6673C1.69165 16.6673 1.69167 16.6673 1.69169 16.6673L14.705 14.7764L15.2253 14.7008L15.4579 14.2293L21.2777 2.4373C21.5732 1.83862 22.4267 1.83861 22.7222 2.43728C22.7223 2.43729 22.7223 2.4373 22.7223 2.4373L28.5421 14.2294Z" fill="#FFB025" stroke="#FFB025" stroke-width="2"/>
</g>
<defs>
<clipPath id="clip0_376_6979">
<rect width="44" height="44" fill="white"/>
</clipPath>
</defs>
</svg>
