<svg width="20" height="20" viewBox="0 0 20 20" fill="none" xmlns="http://www.w3.org/2000/svg">
<path d="M13.7485 18.3333C13.6498 18.3339 13.552 18.3148 13.4607 18.2771C13.3693 18.2394 13.2862 18.1839 13.2162 18.1137L10.2174 15.0842C10.0762 14.9416 9.99693 14.7482 9.99693 14.5465C9.99693 14.3448 10.0762 14.1513 10.2174 14.0087C10.3586 13.8661 10.55 13.786 10.7497 13.786C10.9493 13.786 11.1408 13.8661 11.282 14.0087L12.9988 15.7507V2.42845C12.9988 2.22759 13.0778 2.03494 13.2184 1.89291C13.3589 1.75087 13.5496 1.67108 13.7485 1.67108C13.9473 1.67108 14.138 1.75087 14.2786 1.89291C14.4192 2.03494 14.4982 2.22759 14.4982 2.42845V15.7507L16.215 14.0087C16.3561 13.8661 16.5476 13.786 16.7472 13.786C16.9469 13.786 17.1384 13.8661 17.2795 14.0087C17.4207 14.1513 17.5 14.3448 17.5 14.5465C17.5 14.7482 17.4207 14.9416 17.2795 15.0842L14.2807 18.1137C14.2107 18.1839 14.1276 18.2394 14.0363 18.2771C13.9449 18.3148 13.8471 18.3339 13.7485 18.3333ZM6.25153 18.3333C6.0527 18.3333 5.86202 18.2535 5.72142 18.1115C5.58083 17.9695 5.50184 17.7768 5.50184 17.576V4.25373L3.78504 5.99569C3.64387 6.13831 3.45241 6.21843 3.25276 6.21843C3.05312 6.21843 2.86165 6.13831 2.72048 5.99569C2.57931 5.85308 2.5 5.65965 2.5 5.45796C2.5 5.25627 2.57931 5.06284 2.72048 4.92022L5.71925 1.89072C5.78895 1.81973 5.87186 1.76339 5.96322 1.72493C6.05458 1.68648 6.15257 1.66669 6.25153 1.66669C6.3505 1.66669 6.44849 1.68648 6.53985 1.72493C6.63121 1.76339 6.71412 1.81973 6.78382 1.89072L9.78259 4.92022C9.92376 5.06284 10.0031 5.25627 10.0031 5.45796C10.0031 5.65965 9.92376 5.85308 9.78259 5.99569C9.64142 6.13831 9.44995 6.21843 9.25031 6.21843C9.05066 6.21843 8.85919 6.13831 8.71802 5.99569L7.00123 4.25373V17.576C7.00123 17.7768 6.92224 17.9695 6.78165 18.1115C6.64105 18.2535 6.45036 18.3333 6.25153 18.3333Z" fill="#292D32"/>
</svg>
