<svg width="10" height="10" viewBox="0 0 10 10" fill="none" xmlns="http://www.w3.org/2000/svg">
<path d="M9.91276 4.10451L7.67931 6.39452L8.20433 9.63558C8.25059 9.8942 7.97015 10.0836 7.74598 9.96094L5 8.43843V0C5.11667 0 5.23335 0.0542262 5.28335 0.16685L6.66259 3.10758L9.73358 3.57476C9.99026 3.62064 10.0848 3.92306 9.91276 4.10451Z" fill="#FFC107"/>
<path d="M5.00004 0V8.43843L2.25406 9.96094C2.03364 10.0848 1.74904 9.89712 1.79571 9.63558L2.32073 6.39452L0.0872843 4.10451C-0.084808 3.92306 0.00936356 3.62064 0.26646 3.57476L3.33745 3.10758L4.71669 0.16685C4.7667 0.0542262 4.88337 0 5.00004 0Z" fill="#FFC107"/>
</svg>
