<svg width="20" height="20" viewBox="0 0 20 20" fill="none" xmlns="http://www.w3.org/2000/svg">
<path d="M8.42134 2.69012L8.42172 2.68981C9.2943 1.989 10.7012 1.99243 11.5883 2.69903C11.5884 2.69913 11.5886 2.69923 11.5887 2.69934L17.0444 7.06387C17.3449 7.30955 17.6096 7.69813 17.7811 8.1472C17.9526 8.59587 18.0149 9.06233 17.9566 9.44595L16.9077 15.7228C16.9076 15.7233 16.9075 15.7237 16.9074 15.7242C16.7061 16.8788 15.5785 17.8333 14.417 17.8333H5.58363C4.40415 17.8333 3.30282 16.9026 3.1016 15.7331C3.10154 15.7328 3.10148 15.7324 3.10143 15.7321L2.05179 9.4509L2.0516 9.44975C1.98612 9.06343 2.04443 8.59625 2.2154 8.14792C2.38634 7.69965 2.65415 7.31155 2.96214 7.06582L2.96301 7.06512L8.42134 2.69012ZM10.0003 16.125C10.6181 16.125 11.1253 15.6178 11.1253 15V12.5C11.1253 11.8822 10.6181 11.375 10.0003 11.375C9.38248 11.375 8.87529 11.8822 8.87529 12.5V15C8.87529 15.6178 9.38248 16.125 10.0003 16.125Z" fill="#E94293" stroke="#E94293"/>
</svg>
