<svg width="20" height="20" viewBox="0 0 20 20" fill="none" xmlns="http://www.w3.org/2000/svg">
<path d="M9.39979 4.89112L10.0003 5.69381L10.6009 4.89112C11.3076 3.94643 12.4393 3.3335 13.7003 3.3335C15.8409 3.3335 17.5837 5.07753 17.5837 7.24183C17.5837 8.15193 17.4386 8.99079 17.1867 9.7693L17.1867 9.76929L17.1852 9.77418C16.5806 11.6876 15.3373 13.2413 13.9792 14.4084C12.6178 15.5784 11.1843 16.3226 10.2754 16.6318L10.2754 16.6318L10.2674 16.6346C10.2309 16.6474 10.1342 16.6668 10.0003 16.6668C9.86644 16.6668 9.7697 16.6474 9.73327 16.6346L9.73329 16.6345L9.72524 16.6318C8.81639 16.3226 7.38282 15.5784 6.02146 14.4084C4.6634 13.2413 3.4201 11.6876 2.81547 9.77418L2.81549 9.77417L2.81391 9.7693C2.56204 8.99079 2.41699 8.15193 2.41699 7.24183C2.41699 5.07753 4.15971 3.3335 6.30033 3.3335C7.5613 3.3335 8.69302 3.94643 9.39979 4.89112Z" fill="black" stroke="black" stroke-width="1.5"/>
</svg>
