<svg width="34" height="34" viewBox="0 0 34 34" fill="none" xmlns="http://www.w3.org/2000/svg">
<circle cx="17" cy="17" r="17" fill="#158FCF"/>
<circle cx="17" cy="17" r="17" fill="#E5F6FF"/>
<path d="M24.1829 14.0416C23.3079 10.1916 19.9496 8.45825 16.9996 8.45825C16.9996 8.45825 16.9996 8.45825 16.9913 8.45825C14.0496 8.45825 10.6829 10.1833 9.80792 14.0333C8.83292 18.3333 11.4663 21.9749 13.8496 24.2666C14.7329 25.1166 15.8663 25.5416 16.9996 25.5416C18.1329 25.5416 19.2663 25.1166 20.1413 24.2666C22.5246 21.9749 25.1579 18.3416 24.1829 14.0416ZM16.9996 18.2166C15.5496 18.2166 14.3746 17.0416 14.3746 15.5916C14.3746 14.1416 15.5496 12.9666 16.9996 12.9666C18.4496 12.9666 19.6246 14.1416 19.6246 15.5916C19.6246 17.0416 18.4496 18.2166 16.9996 18.2166Z" fill="#158FCF"/>
</svg>
