<svg width="238" height="64" viewBox="0 0 238 64" fill="none" xmlns="http://www.w3.org/2000/svg">
<path d="M11.0087 58H9.86027V50.3984H9.81242L6.66789 57.9316H5.62883L2.4843 50.3984H2.43645V58H1.28801V48.1357H2.71672L6.12102 56.3662H6.1757L9.58 48.1357H11.0087V58ZM13.4661 60.6592C13.3225 60.6592 13.0833 60.6455 12.9534 60.6182V59.6201C13.0833 59.6475 13.2679 59.6543 13.4182 59.6543C14.0813 59.6543 14.4505 59.333 14.7239 58.5059L14.888 58.0068L12.263 50.8906H13.5345L15.5032 56.8105H15.5237L17.4925 50.8906H18.7434L15.9475 58.499C15.3391 60.1602 14.7513 60.6592 13.4661 60.6592ZM27.083 58.1641C24.3623 58.1641 22.6396 56.1885 22.6396 53.0645C22.6396 49.9678 24.3828 47.9717 27.083 47.9717C29.2295 47.9717 30.8633 49.2773 31.1777 51.2461H29.9336C29.6191 49.9541 28.4912 49.1064 27.083 49.1064C25.1553 49.1064 23.9043 50.665 23.9043 53.0645C23.9043 55.4844 25.1416 57.0293 27.0898 57.0293C28.5391 57.0293 29.5781 56.332 29.9336 55.1289H31.1777C30.7266 57.0771 29.2637 58.1641 27.083 58.1641ZM34.9339 57.1113C36.055 57.1113 36.9164 56.3252 36.9164 55.2998V54.7188L35.016 54.835C34.0589 54.8965 33.5121 55.3203 33.5121 55.9902C33.5121 56.667 34.0795 57.1113 34.9339 57.1113ZM34.6673 58.123C33.2523 58.123 32.3021 57.2686 32.3021 55.9902C32.3021 54.7734 33.2386 54.0078 34.8793 53.9121L36.9164 53.7959V53.2012C36.9164 52.333 36.3421 51.8135 35.3578 51.8135C34.4418 51.8135 33.8675 52.2441 33.7171 52.9414H32.5687C32.6507 51.7109 33.7035 50.7676 35.3851 50.7676C37.0531 50.7676 38.1058 51.6699 38.1058 53.085V58H36.9779V56.7764H36.9505C36.5267 57.5898 35.6244 58.123 34.6673 58.123ZM39.7566 58V50.8906H40.8777V52.0527H40.905C41.1374 51.2666 41.7937 50.7676 42.6277 50.7676C42.8327 50.7676 43.0105 50.8018 43.1062 50.8154V51.9707C43.0105 51.9365 42.7575 51.9023 42.4704 51.9023C41.5476 51.9023 40.946 52.5654 40.946 53.5703V58H39.7566ZM44.5997 49.1748H45.7891V50.8906H47.17V51.8682H45.7891V56.0928C45.7891 56.7422 46.0626 57.0361 46.671 57.0361C46.8077 57.0361 47.0811 57.0156 47.1632 57.002V58C47.0196 58.0342 46.6915 58.0547 46.4112 58.0547C45.1055 58.0547 44.5997 57.5215 44.5997 56.1543V51.8682H43.5401V50.8906H44.5997V49.1748Z" fill="black"/>
<rect x="5" width="38" height="38" rx="19" fill="#E5F6FF"/>
<path d="M31.5025 16.2147C30.8711 15.5365 29.9193 15.1424 28.6 15.0049V14.3083C28.6 13.0526 28.0534 11.8427 27.0921 10.9995C26.1215 10.1379 24.8586 9.73466 23.5487 9.85381C21.2964 10.0646 19.4022 12.1819 19.4022 14.4733V15.0049C18.0828 15.1424 17.131 15.5365 16.4996 16.2147C15.5855 17.2046 15.6137 18.5245 15.7174 19.441L16.3771 24.5463C16.575 26.3335 17.3195 28.1667 21.3718 28.1667H26.6303C30.6827 28.1667 31.4271 26.3335 31.625 24.5554L32.2847 19.4319C32.3884 18.5245 32.4072 17.2046 31.5025 16.2147ZM23.6807 11.1278C24.623 11.0453 25.5183 11.3295 26.2157 11.9436C26.9036 12.5485 27.29 13.4101 27.29 14.3083V14.9499H20.7121V14.4733C20.7121 12.8418 22.0974 11.2745 23.6807 11.1278ZM20.6273 20.0551H20.6179C20.0995 20.0551 19.6755 19.6427 19.6755 19.1386C19.6755 18.6345 20.0995 18.222 20.6179 18.222C21.1456 18.222 21.5697 18.6345 21.5697 19.1386C21.5697 19.6427 21.1456 20.0551 20.6273 20.0551ZM27.2241 20.0551H27.2146C26.6963 20.0551 26.2722 19.6427 26.2722 19.1386C26.2722 18.6345 26.6963 18.222 27.2146 18.222C27.7424 18.222 28.1665 18.6345 28.1665 19.1386C28.1665 19.6427 27.7424 20.0551 27.2241 20.0551Z" fill="#158FCF"/>
<path d="M186.361 48.1357H189.882C190.807 48.1357 191.563 48.432 192.151 49.0244C192.744 49.6123 193.04 50.3711 193.04 51.3008C193.04 52.235 192.744 52.9984 192.151 53.5908C191.559 54.1833 190.798 54.4795 189.868 54.4795H187.592V58H186.361V48.1357ZM187.592 49.2295V53.3857H189.56C190.262 53.3857 190.807 53.2035 191.194 52.8389C191.582 52.4697 191.775 51.957 191.775 51.3008C191.775 50.6445 191.582 50.1364 191.194 49.7764C190.811 49.4118 190.267 49.2295 189.56 49.2295H187.592ZM196.14 57.1113C196.7 57.1113 197.17 56.9382 197.548 56.5918C197.931 56.2409 198.122 55.8102 198.122 55.2998V54.7188L196.222 54.835C195.743 54.8669 195.372 54.9831 195.108 55.1836C194.848 55.3841 194.718 55.653 194.718 55.9902C194.718 56.3275 194.848 56.5986 195.108 56.8037C195.367 57.0088 195.712 57.1113 196.14 57.1113ZM195.873 58.123C195.167 58.123 194.595 57.9271 194.157 57.5352C193.725 57.1432 193.508 56.6283 193.508 55.9902C193.508 55.3796 193.731 54.8919 194.178 54.5273C194.629 54.1628 195.265 53.9577 196.085 53.9121L198.122 53.7959V53.2012C198.122 52.7682 197.986 52.4287 197.712 52.1826C197.439 51.9365 197.056 51.8135 196.564 51.8135C196.113 51.8135 195.746 51.9137 195.463 52.1143C195.181 52.3102 195.001 52.5859 194.923 52.9414H193.775C193.816 52.3079 194.089 51.7884 194.595 51.3828C195.105 50.9727 195.771 50.7676 196.591 50.7676C197.425 50.7676 198.086 50.9772 198.574 51.3965C199.066 51.8158 199.312 52.3786 199.312 53.085V58H198.184V56.7764H198.157C197.942 57.182 197.628 57.5078 197.213 57.7539C196.798 58 196.352 58.123 195.873 58.123ZM201.55 60.6592C201.341 60.6592 201.17 60.6455 201.038 60.6182V59.6201C201.147 59.6429 201.302 59.6543 201.503 59.6543C201.835 59.6543 202.102 59.5654 202.302 59.3877C202.503 59.2145 202.672 58.9206 202.808 58.5059L202.972 58.0068L200.347 50.8906H201.619L203.588 56.8105H203.608L205.577 50.8906H206.828L204.032 58.499C203.727 59.3285 203.396 59.8958 203.041 60.2012C202.69 60.5065 202.193 60.6592 201.55 60.6592ZM207.911 58V50.8906H209.032V52.0254H209.06C209.233 51.638 209.495 51.3327 209.846 51.1094C210.197 50.8815 210.607 50.7676 211.076 50.7676C211.559 50.7676 211.974 50.8861 212.32 51.123C212.667 51.3555 212.917 51.6882 213.072 52.1211H213.1C213.296 51.6973 213.59 51.3669 213.981 51.1299C214.378 50.8883 214.827 50.7676 215.328 50.7676C216.03 50.7676 216.59 50.9795 217.01 51.4033C217.434 51.8226 217.646 52.3854 217.646 53.0918V58H216.456V53.3652C216.456 52.8776 216.326 52.4993 216.066 52.2305C215.811 51.957 215.449 51.8203 214.979 51.8203C214.51 51.8203 214.125 51.9775 213.824 52.292C213.523 52.6019 213.373 52.9984 213.373 53.4814V58H212.184V53.2354C212.184 52.807 212.051 52.4652 211.787 52.21C211.523 51.9502 211.17 51.8203 210.728 51.8203C210.258 51.8203 209.868 51.9844 209.559 52.3125C209.253 52.6406 209.101 53.0508 209.101 53.543V58H207.911ZM222.154 51.7998C221.602 51.7998 221.144 51.9912 220.78 52.374C220.42 52.7523 220.221 53.2399 220.185 53.8369H224.047C224.034 53.2354 223.854 52.7454 223.507 52.3672C223.161 51.9889 222.71 51.7998 222.154 51.7998ZM224.02 55.9629H225.189C225.084 56.5918 224.756 57.109 224.204 57.5146C223.658 57.9202 222.999 58.123 222.229 58.123C221.213 58.123 220.413 57.7949 219.829 57.1387C219.246 56.4824 218.954 55.5938 218.954 54.4727C218.954 53.3607 219.246 52.4652 219.829 51.7861C220.417 51.1071 221.199 50.7676 222.174 50.7676C223.131 50.7676 223.888 51.0889 224.444 51.7314C225 52.374 225.278 53.2354 225.278 54.3154V54.7666H220.178V54.835C220.178 55.5186 220.365 56.0654 220.739 56.4756C221.112 56.8857 221.618 57.0908 222.256 57.0908C222.703 57.0908 223.083 56.9883 223.398 56.7832C223.712 56.5781 223.92 56.3047 224.02 55.9629ZM226.621 58V50.8906H227.742V52.0254H227.769C227.974 51.6289 228.268 51.3213 228.651 51.1025C229.034 50.8792 229.492 50.7676 230.025 50.7676C230.8 50.7676 231.404 51.0023 231.837 51.4717C232.27 51.9365 232.486 52.5745 232.486 53.3857V58H231.297V53.5977C231.297 53.0189 231.16 52.5791 230.886 52.2783C230.613 51.973 230.205 51.8203 229.663 51.8203C229.102 51.8203 228.653 52.0026 228.316 52.3672C227.979 52.7318 227.81 53.2148 227.81 53.8164V58H226.621ZM234.526 49.1748H235.716V50.8906H237.097V51.8682H235.716V56.0928C235.716 56.4163 235.787 56.6556 235.928 56.8105C236.069 56.9609 236.292 57.0361 236.598 57.0361C236.789 57.0361 236.953 57.0247 237.09 57.002V58C236.935 58.0365 236.684 58.0547 236.338 58.0547C235.686 58.0547 235.221 57.9089 234.943 57.6172C234.665 57.3255 234.526 56.8379 234.526 56.1543V51.8682H233.467V50.8906H234.526V49.1748Z" fill="#696969"/>
<rect x="192" width="38" height="38" rx="19" fill="#F4F4F4"/>
<path d="M219.334 15.2917C219.334 15.8417 218.884 16.2917 218.334 16.2917H203.667C203.117 16.2917 202.667 15.8417 202.667 15.2917V15.2833C202.667 13.375 204.209 11.8333 206.117 11.8333H215.875C217.784 11.8333 219.334 13.3833 219.334 15.2917Z" fill="#696969"/>
<path d="M202.667 18.5417V22.7167C202.667 24.625 204.209 26.1667 206.117 26.1667H215.875C217.784 26.1667 219.334 24.6167 219.334 22.7083V18.5417C219.334 17.9917 218.884 17.5417 218.334 17.5417H203.667C203.117 17.5417 202.667 17.9917 202.667 18.5417ZM207.667 23.375H206C205.659 23.375 205.375 23.0917 205.375 22.75C205.375 22.4083 205.659 22.125 206 22.125H207.667C208.009 22.125 208.292 22.4083 208.292 22.75C208.292 23.0917 208.009 23.375 207.667 23.375ZM213.084 23.375H209.75C209.409 23.375 209.125 23.0917 209.125 22.75C209.125 22.4083 209.409 22.125 209.75 22.125H213.084C213.425 22.125 213.709 22.4083 213.709 22.75C213.709 23.0917 213.425 23.375 213.084 23.375Z" fill="#696969"/>
<line x1="40" y1="18.7" x2="195" y2="18.7" stroke="#696969" stroke-width="0.6" stroke-dasharray="4 4"/>
</svg>
