<svg width="140" height="140" viewBox="0 0 140 140" fill="none" xmlns="http://www.w3.org/2000/svg">
<circle cx="70" cy="70" r="70" fill="#E5F6FF"/>
<path fill-rule="evenodd" clip-rule="evenodd" d="M89.6667 45.2666C86.367 43.2243 82.5004 36.5 77.1377 36.5C71.1167 34.9999 61.0004 36.5 57 41.5C52.4996 45 48.5004 56 51.0003 62.7666C52 75.5 64.42 87.8499 70.6267 94.8966L71.1167 95.3166C71.1167 95.3166 92.7934 78.1433 92.7934 56.2566C92.8081 52.3718 91.7242 48.5619 89.6667 45.2666ZM71 62.7666C69.2833 62.7666 67.6051 62.2575 66.1777 61.3038C64.7502 60.35 63.6377 58.9944 62.9807 57.4083C62.3238 55.8222 62.1519 54.077 62.4868 52.3932C62.8217 50.7095 63.6484 49.1628 64.8623 47.9489C66.0763 46.735 67.6229 45.9083 69.3066 45.5734C70.9904 45.2385 72.7356 45.4104 74.3217 46.0673C75.9078 46.7243 77.2634 47.8368 78.2172 49.2643C79.1709 50.6917 79.68 52.3699 79.68 54.0866C79.68 56.3887 78.7655 58.5965 77.1377 60.2243C75.5099 61.8521 73.3021 62.7666 71 62.7666Z" fill="#158FCF"/>
<path d="M71.57 66.14C69.4795 66.14 67.4359 65.5201 65.6976 64.3586C63.9594 63.1972 62.6046 61.5464 61.8046 59.615C61.0046 57.6836 60.7953 55.5583 61.2031 53.5079C61.611 51.4575 62.6176 49.5741 64.0959 48.0959C65.5741 46.6176 67.4575 45.611 69.5079 45.2031C71.5583 44.7953 73.6836 45.0046 75.615 45.8046C77.5464 46.6046 79.1972 47.9594 80.3586 49.6976C81.5201 51.4359 82.14 53.4795 82.14 55.57C82.1338 58.3714 81.0182 61.0564 79.0373 63.0373C77.0564 65.0182 74.3714 66.1338 71.57 66.14ZM71.57 48.78C70.2261 48.78 68.9124 49.1788 67.7953 49.926C66.6782 50.6731 65.8079 51.7349 65.2947 52.977C64.7814 54.2191 64.6483 55.5855 64.9122 56.9033C65.1761 58.221 65.8251 59.4309 66.7771 60.3795C67.729 61.3282 68.941 61.973 70.2597 62.2324C71.5784 62.4917 72.9443 62.3539 74.1846 61.8364C75.4249 61.3189 76.4838 60.445 77.227 59.3253C77.9703 58.2057 78.3646 56.8906 78.36 55.5467C78.3477 53.7539 77.6269 52.0389 76.3548 50.7756C75.0828 49.5123 73.3628 48.8033 71.57 48.8033V48.78Z" fill="#158FCF"/>
<path d="M66.0295 93.3334H55.8095C55.3052 93.3334 54.8215 93.5337 54.4648 93.8903C54.1082 94.247 53.9079 94.7307 53.9079 95.235C53.9079 95.7394 54.1082 96.2231 54.4648 96.5797C54.8215 96.9363 55.3052 97.1367 55.8095 97.1367H86.1429C86.6472 97.1367 87.1309 96.9363 87.4875 96.5797C87.8442 96.2231 88.0445 95.7394 88.0445 95.235C88.0445 94.7307 87.8442 94.247 87.4875 93.8903C87.1309 93.5337 86.6472 93.3334 86.1429 93.3334H75.9695C82.3862 87.15 94.6362 73.1733 94.6362 56.1867C94.6362 49.9302 92.1508 43.93 87.7268 39.506C83.3029 35.082 77.3026 32.5967 71.0462 32.5967C64.7897 32.5967 58.7895 35.082 54.3655 39.506C49.9416 43.93 47.4562 49.9302 47.4562 56.1867C47.4095 73.2433 59.6129 87.2434 66.0295 93.3334ZM70.9995 36.47C76.2454 36.4762 81.2746 38.5628 84.984 42.2722C88.6934 45.9816 90.78 51.0108 90.7862 56.2567C90.7862 74.0367 75.4329 88.9234 70.9995 92.82C66.5662 88.9 51.2129 74.1533 51.2129 56.2567C51.219 51.0108 53.3057 45.9816 57.0151 42.2722C60.7244 38.5628 65.7537 36.4762 70.9995 36.47Z" fill="#158FCF"/>
<path d="M108.446 98.33L105.926 88.32C105.543 86.8188 104.674 85.4867 103.454 84.5324C102.234 83.5781 100.731 83.0556 99.1822 83.0467H94.0955C93.5912 83.0467 93.1075 83.247 92.7508 83.6037C92.3942 83.9603 92.1939 84.444 92.1939 84.9483C92.1939 85.4527 92.3942 85.9364 92.7508 86.293C93.1075 86.6496 93.5912 86.85 94.0955 86.85H99.1589C99.8575 86.8456 100.538 87.0719 101.095 87.4938C101.652 87.9157 102.054 88.5096 102.239 89.1833L104.759 99.31C104.864 99.7751 104.863 100.258 104.756 100.723C104.649 101.187 104.438 101.622 104.14 101.994C103.842 102.366 103.464 102.667 103.034 102.872C102.603 103.078 102.132 103.185 101.656 103.183H40.9889C40.5083 103.182 40.0342 103.072 39.602 102.862C39.1697 102.652 38.7904 102.347 38.4922 101.97C38.1952 101.593 37.9883 101.153 37.8872 100.684C37.7861 100.215 37.7935 99.7291 37.9089 99.2633L40.4289 89.1367C40.6102 88.4609 41.0114 87.8648 41.5691 87.4423C42.1268 87.0198 42.8093 86.795 43.5089 86.8033H48.5489C49.0532 86.8033 49.5369 86.603 49.8935 86.2463C50.2502 85.8897 50.4505 85.406 50.4505 84.9017C50.4505 84.3973 50.2502 83.9136 49.8935 83.557C49.5369 83.2004 49.0532 83 48.5489 83H43.4855C41.9262 83.0064 40.4137 83.5333 39.1879 84.497C37.962 85.4608 37.0931 86.8063 36.7189 88.32L34.1989 98.33C33.9482 99.3592 33.9343 100.432 34.1583 101.467C34.3824 102.502 34.8384 103.473 35.4922 104.307C36.1459 105.14 36.9803 105.815 37.9324 106.279C38.8845 106.743 39.9296 106.985 40.9889 106.987H101.656C102.711 106.978 103.751 106.731 104.697 106.264C105.643 105.796 106.471 105.121 107.12 104.289C107.769 103.456 108.22 102.488 108.442 101.456C108.663 100.424 108.649 99.3554 108.399 98.33H108.446Z" fill="#158FCF"/>
</svg>
