<svg width="140" height="140" viewBox="0 0 140 140" fill="none" xmlns="http://www.w3.org/2000/svg">
<circle cx="70" cy="70" r="70" fill="#E5F6FF"/>
<g clip-path="url(#clip0_6304_12639)">
<path d="M99.8109 78.3904L61.833 79.3335L53.083 42.3614H109.435L99.8109 78.3904Z" fill="#158FCF"/>
<path d="M98.0838 91.9629H52.4307C51.1969 91.9629 50.4565 91.2225 49.9629 90.2355L34.9097 33.4775H30.4678C28.987 33.4775 28 32.4903 28 31.0097C28 29.529 28.987 28.542 30.4678 28.542H36.6371C37.8709 28.542 38.6113 29.2824 39.1049 30.2694L54.1581 87.0275H98.084C99.5646 87.0275 100.552 88.0145 100.552 89.4953C100.552 90.9759 99.5646 91.9629 98.0838 91.9629Z" fill="#158FCF"/>
<path d="M99.8108 80.858H49.469C48.2352 80.858 47.4948 80.1176 47.0012 79.1306L37.3771 42.8548C37.1303 42.1144 37.3771 41.3742 37.8707 40.6338C38.3643 40.1402 39.1045 39.6468 39.8449 39.6468H109.435C110.176 39.6468 110.916 39.8936 111.41 40.6338C111.903 41.1274 112.15 42.1144 111.903 42.8548L102.279 78.884C101.785 80.1178 100.798 80.858 99.8108 80.858ZM51.1965 75.9226H97.8368L106.227 44.829H43.0528L51.1965 75.9226Z" fill="#158FCF"/>
<path d="M52.4308 54.9467H35.4034C33.9227 54.9467 32.9355 53.9597 32.9355 52.4789C32.9355 50.9981 33.9226 50.0111 35.4034 50.0111H52.4308C53.9114 50.0111 54.8986 50.9981 54.8986 52.4789C54.8986 53.9597 53.9114 54.9467 52.4308 54.9467Z" fill="#158FCF"/>
<path d="M49.469 63.0904H32.4414C30.9608 63.0904 29.9736 62.1034 29.9736 60.6226C29.9736 59.1418 30.9607 58.1548 32.4414 58.1548H49.4688C50.9495 58.1548 51.9367 59.1418 51.9367 60.6226C51.9367 62.1034 50.9496 63.0904 49.469 63.0904Z" fill="#158FCF"/>
<path d="M54.8985 71.2339H37.8711C36.3905 71.2339 35.4033 70.2469 35.4033 68.7661C35.4033 67.2853 36.3903 66.2983 37.8711 66.2983H54.8985C56.3792 66.2983 57.3663 67.2853 57.3663 68.7661C57.3663 70.2469 56.3793 71.2339 54.8985 71.2339Z" fill="#158FCF"/>
<path d="M91.6675 111.458C86.4853 111.458 82.29 107.263 82.29 102.081C82.29 96.8984 86.4853 92.7032 91.6675 92.7032C96.8498 92.7032 101.045 96.8984 101.045 102.081C101.045 107.263 96.8498 111.458 91.6675 111.458ZM91.6675 97.6388C89.1997 97.6388 87.2257 99.613 87.2257 102.081C87.2257 104.548 89.1999 106.523 91.6675 106.523C94.1352 106.523 96.1094 104.548 96.1094 102.081C96.1094 99.613 94.1353 97.6388 91.6675 97.6388Z" fill="#158FCF"/>
<path d="M55.3921 111.458C50.2099 111.458 46.0146 107.263 46.0146 102.081C46.0146 96.8984 50.2099 92.7032 55.3921 92.7032C60.5744 92.7032 64.7696 96.8984 64.7696 102.081C64.7696 107.263 60.5744 111.458 55.3921 111.458ZM55.3921 97.6388C52.9243 97.6388 50.9503 99.613 50.9503 102.081C50.9503 104.548 52.9245 106.523 55.3921 106.523C57.8598 106.523 59.834 104.548 59.834 102.081C59.834 99.613 57.86 97.6388 55.3921 97.6388Z" fill="#158FCF"/>
</g>
<defs>
<clipPath id="clip0_6304_12639">
<rect width="84" height="84" fill="white" transform="translate(28 28)"/>
</clipPath>
</defs>
</svg>
