<svg width="140" height="140" viewBox="0 0 140 140" fill="none" xmlns="http://www.w3.org/2000/svg">
<circle cx="70" cy="70" r="70" fill="#DFEAE2"/>
<path fill-rule="evenodd" clip-rule="evenodd" d="M84.9118 62.6965C84.2118 62.4865 83.4418 62.4165 82.6484 62.4165H59.5251C53.9251 62.4165 49.3984 66.9432 49.3984 72.5432V105.443H75.0651C77.7484 105.443 80.3384 104.37 82.2284 102.48C84.1184 100.59 85.1918 97.9998 85.1918 95.3165V64.9365C85.1918 64.1432 85.0984 63.3965 84.9118 62.6732V62.6965ZM71.1451 81.5965C69.8384 84.2565 66.4551 86.9165 63.6784 88.6898C60.8784 86.9165 57.5184 84.2565 56.2118 81.5965C54.3684 78.0498 54.3684 74.5032 56.2118 72.7298C58.0784 70.9565 61.8118 70.9565 63.6784 74.5032C65.5451 70.9565 69.2784 70.9565 71.1451 72.7298C72.9884 74.5032 72.9884 78.0498 71.1451 81.5965Z" fill="#40744D"/>
<path d="M107.193 33.8332C106.89 33.1332 106.213 32.6665 105.443 32.6665H64.9368C58.3101 32.6665 52.9201 38.0565 52.9201 44.6832C52.9201 45.7332 53.7601 46.5732 54.8101 46.5732C55.8601 46.5732 56.7001 45.7332 56.7001 44.6832C56.7001 40.1565 60.3868 36.4465 64.9368 36.4465H100.847L96.8568 40.4365C96.5068 40.7865 96.2968 41.2765 96.2968 41.7898V75.0632C96.2968 77.2565 95.4335 79.3332 93.8935 80.8732C92.3535 82.4365 90.2768 83.2765 88.0835 83.2765H87.0801V64.9365C87.0801 58.3098 81.6901 52.9198 75.0635 52.9198H51.9168C45.2901 52.9198 39.9001 58.3098 39.9001 64.9365V89.1565C39.9001 90.2065 40.7401 91.0465 41.7901 91.0465C42.8401 91.0465 43.6801 90.2065 43.6801 89.1565V64.9365C43.6801 60.4098 47.3668 56.6998 51.9168 56.6998H75.0635C79.5901 56.6998 83.3001 60.3865 83.3001 64.9365V95.3165C83.3001 97.5098 82.4368 99.5865 80.8968 101.126C79.3568 102.69 77.2801 103.53 75.0868 103.53H39.1535L43.1435 99.5398C43.8901 98.7932 43.8901 97.6032 43.1435 96.8565C42.3968 96.1098 41.2068 96.1098 40.4601 96.8565L33.2268 104.09C32.6901 104.626 32.5268 105.443 32.8068 106.166C33.0868 106.89 33.7868 107.333 34.5568 107.333H75.0635C78.2835 107.333 81.2935 106.073 83.5568 103.81C85.8201 101.547 87.0801 98.5132 87.0801 95.3165V87.0798H88.0835C91.3035 87.0798 94.3135 85.8198 96.5768 83.5565C98.8401 81.2932 100.1 78.2598 100.1 75.0632V42.5832L106.773 35.9098C107.31 35.3732 107.473 34.5565 107.193 33.8332Z" fill="black"/>
<path d="M63.6773 90.5797C63.3273 90.5797 62.9773 90.4864 62.6506 90.2764C60.3173 88.8064 56.164 85.8197 54.5073 82.4131C52.244 78.0964 52.384 73.7331 54.904 71.3297C56.304 69.9997 58.3106 69.4164 60.2706 69.7197C61.554 69.9297 62.6973 70.4897 63.654 71.3764C64.6106 70.4897 65.7773 69.9297 67.0606 69.7197C69.044 69.3931 71.0273 69.9997 72.4273 71.3297C74.9473 73.7331 75.0873 78.0964 72.8006 82.4597C71.1673 85.7964 67.014 88.7831 64.6806 90.2531C64.3773 90.4397 64.0273 90.5564 63.654 90.5564L63.6773 90.5797ZM59.2206 73.4764C58.5673 73.4764 57.9373 73.7097 57.5173 74.1064C56.3273 75.2497 56.4673 78.0264 57.8906 80.7097C58.7306 82.4131 60.8306 84.4664 63.6773 86.4031C66.5006 84.4664 68.624 82.4131 69.4406 80.7564C70.8873 78.0264 71.0273 75.2497 69.8373 74.1064C69.3006 73.5931 68.484 73.3597 67.6906 73.4997C67.014 73.6164 66.0806 74.0364 65.3573 75.3897C64.704 76.6264 62.6506 76.6264 61.9973 75.3897C61.274 74.0364 60.3406 73.6164 59.664 73.4997C59.524 73.4764 59.384 73.4531 59.2206 73.4531V73.4764Z" fill="black"/>
</svg>
