<svg width="140" height="140" viewBox="0 0 140 140" fill="none" xmlns="http://www.w3.org/2000/svg">
<circle cx="70" cy="70" r="70" fill="#E5F6FF"/>
<path d="M105.726 73.78C105.543 74.0329 105.302 74.2386 105.024 74.3801C104.745 74.5216 104.437 74.5948 104.125 74.5938H80.4998C80.0882 74.5934 79.687 74.4641 79.3527 74.224C79.0184 73.9839 78.7678 73.645 78.636 73.255L75.2498 63.0963L71.8635 73.255C71.7318 73.645 71.4812 73.9839 71.1469 74.224C70.8126 74.4641 70.4114 74.5934 69.9998 74.5938H35.8748C35.5592 74.595 35.2479 74.5203 34.9672 74.376C34.6865 74.2317 34.4446 74.0221 34.2619 73.7648C34.0792 73.5074 33.961 73.2099 33.9174 72.8974C33.8737 72.5848 33.9058 72.2663 34.011 71.9688L39.261 56.2188C39.3972 55.8337 39.6497 55.5005 39.9836 55.2653C40.3176 55.0302 40.7164 54.9047 41.1248 54.9062H98.8748C99.2864 54.9066 99.6876 55.0359 100.022 55.276C100.356 55.5161 100.607 55.855 100.739 56.245L105.989 71.995C106.09 72.2919 106.119 72.6088 106.074 72.9193C106.028 73.2298 105.909 73.5249 105.726 73.78ZM69.9998 48.3438C70.5219 48.3438 71.0227 48.1363 71.3919 47.7671C71.7611 47.3979 71.9685 46.8971 71.9685 46.375V35.875C71.9685 35.3529 71.7611 34.8521 71.3919 34.4829C71.0227 34.1137 70.5219 33.9062 69.9998 33.9062C69.4776 33.9062 68.9769 34.1137 68.6077 34.4829C68.2385 34.8521 68.031 35.3529 68.031 35.875V46.375C68.031 46.8971 68.2385 47.3979 68.6077 47.7671C68.9769 48.1363 69.4776 48.3438 69.9998 48.3438ZM77.8748 49.945C78.301 50.2019 78.8087 50.2878 79.2957 50.1856C79.7827 50.0833 80.2129 49.8004 80.4998 49.3937L86.2748 40.6262C86.5037 40.4285 86.6839 40.1808 86.8016 39.9021C86.9192 39.6235 86.9711 39.3215 86.9531 39.0196C86.9352 38.7177 86.8479 38.424 86.6981 38.1612C86.5483 37.8985 86.34 37.6738 86.0893 37.5046C85.8386 37.3353 85.5523 37.2262 85.2526 37.1855C84.9529 37.1448 84.6479 37.1737 84.3612 37.27C84.0745 37.3663 83.8138 37.5273 83.5994 37.7406C83.3849 37.9539 83.2225 38.2138 83.1248 38.5L77.3498 47.2675C77.0745 47.6952 76.9754 48.2128 77.0732 48.7119C77.1711 49.2111 77.4584 49.653 77.8748 49.945ZM59.2635 49.3937C59.5525 49.8289 60.0024 50.1314 60.5144 50.2348C61.0263 50.3382 61.5584 50.2339 61.9935 49.945C62.4287 49.6561 62.7312 49.2061 62.8346 48.6942C62.9379 48.1822 62.8337 47.6501 62.5448 47.215L56.8748 38.5C56.7317 38.2846 56.5476 38.0994 56.333 37.9551C56.1184 37.8108 55.8775 37.7102 55.624 37.659C55.3705 37.6078 55.1093 37.607 54.8556 37.6567C54.6018 37.7065 54.3602 37.8057 54.1448 37.9488C53.7097 38.2377 53.4071 38.6876 53.3038 39.1996C53.2526 39.4531 53.2518 39.7142 53.3015 39.968C53.3513 40.2218 53.4505 40.4633 53.5935 40.6788L59.2635 49.3937ZM100.765 78.5312V101.5C100.758 102.703 100.283 103.856 99.4398 104.713C98.5967 105.571 97.4523 106.066 96.2498 106.094H43.7498C42.5336 106.087 41.3691 105.601 40.5091 104.741C39.6491 103.881 39.1629 102.716 39.156 101.5V78.5312H69.9998C71.1706 78.5213 72.3123 78.1651 73.281 77.5075V100.188C73.281 100.71 73.4885 101.21 73.8577 101.58C74.2269 101.949 74.7276 102.156 75.2498 102.156C75.7719 102.156 76.2727 101.949 76.6419 101.58C77.0111 101.21 77.2185 100.71 77.2185 100.188V77.5075C78.1873 78.1651 79.329 78.5213 80.4998 78.5312H100.765ZM69.3435 96.25C69.3435 95.7279 69.1361 95.2271 68.7669 94.8579C68.3977 94.4887 67.8969 94.2812 67.3748 94.2812H59.4998C58.9776 94.2812 58.4769 94.4887 58.1077 94.8579C57.7385 95.2271 57.531 95.7279 57.531 96.25C57.531 96.7721 57.7385 97.2729 58.1077 97.6421C58.4769 98.0113 58.9776 98.2188 59.4998 98.2188H67.3748C67.8969 98.2188 68.3977 98.0113 68.7669 97.6421C69.1361 97.2729 69.3435 96.7721 69.3435 96.25Z" fill="#158FCF"/>
</svg>
