<svg width="192" height="189" viewBox="0 0 192 189" fill="none" xmlns="http://www.w3.org/2000/svg">
<circle cx="94.5" cy="94.5" r="94.5" fill="#DFEAE2"/>
<mask id="mask0_6599_21097" style="mask-type:alpha" maskUnits="userSpaceOnUse" x="3" y="0" width="189" height="189">
<circle cx="97.5" cy="94.5" r="94.5" fill="#DFEAE2"/>
</mask>
<g mask="url(#mask0_6599_21097)">
<mask id="mask1_6599_21097" style="mask-type:luminance" maskUnits="userSpaceOnUse" x="7" y="7" width="194" height="194">
<path d="M201 7H7V201H201V7Z" fill="white"/>
</mask>
<g mask="url(#mask1_6599_21097)">
<path d="M121.229 187.663L95.3984 150.495L136.284 118.674L178.936 187.663" fill="white"/>
<path d="M121.229 187.663L95.3984 150.495L136.284 118.674L178.936 187.663" stroke="black" stroke-width="2" stroke-linecap="round" stroke-linejoin="round"/>
<path d="M111.96 164.366C109.462 163.488 106.491 162.803 102.841 162.523C90.1592 161.549 82.1031 154.318 80.1219 147.44C77.7277 139.127 80.8746 129.819 87.1915 123.844C92.2627 119.048 103.977 118.768 106.241 111.476C106.845 109.529 106.64 107.382 107.472 105.514C108.336 103.576 110.228 102.201 112.272 101.437C123.613 97.2016 136.596 102.973 143.33 112.108" fill="white"/>
<path d="M111.96 164.366C109.462 163.488 106.491 162.803 102.841 162.523C90.1592 161.549 82.1031 154.318 80.1219 147.44C77.7277 139.127 80.8746 129.819 87.1915 123.844C92.2627 119.048 103.977 118.768 106.241 111.476C106.845 109.529 106.64 107.382 107.472 105.514C108.336 103.576 110.228 102.201 112.272 101.437C123.613 97.2016 136.596 102.973 143.33 112.108" stroke="black" stroke-width="2" stroke-linecap="round" stroke-linejoin="round"/>
<path d="M55.2124 100.419L82.9165 96.9862C87.2866 96.4447 90.3904 92.4631 89.8491 88.0933C89.3076 83.7232 85.3258 80.6196 80.9557 81.1609L53.2513 84.5937C48.8814 85.1352 45.7777 89.1168 46.3192 93.4869C46.8607 97.8568 50.8423 100.961 55.2124 100.419Z" fill="white"/>
<path d="M55.2124 100.419L82.9165 96.9862C87.2866 96.4447 90.3904 92.4631 89.8491 88.0933C89.3076 83.7232 85.3258 80.6196 80.9557 81.1609L53.2513 84.5937C48.8814 85.1352 45.7777 89.1168 46.3192 93.4869C46.8607 97.8568 50.8423 100.961 55.2124 100.419Z" stroke="black" stroke-width="2" stroke-miterlimit="10"/>
<path d="M56.0036 76.4468L83.6477 80.3372C88.008 80.951 92.0401 77.9134 92.6536 73.553C93.2674 69.1924 90.2303 65.1604 85.8697 64.5466L58.2259 60.6564C53.8653 60.0429 49.833 63.0802 49.2194 67.4406C48.6057 71.801 51.6432 75.833 56.0036 76.4468Z" fill="white"/>
<path d="M56.0036 76.4468L83.6477 80.3372C88.008 80.951 92.0401 77.9134 92.6536 73.553C93.2674 69.1924 90.2303 65.1604 85.8697 64.5466L58.2259 60.6564C53.8653 60.0429 49.833 63.0802 49.2194 67.4406C48.6057 71.801 51.6432 75.833 56.0036 76.4468Z" stroke="black" stroke-width="2" stroke-miterlimit="10"/>
<path d="M61.7827 115.673L89.4868 112.24C93.8569 111.699 96.9607 107.717 96.4194 103.347C95.8779 98.9771 91.8961 95.8736 87.526 96.4148L59.8216 99.8476C55.4515 100.389 52.348 104.371 52.8895 108.741C53.431 113.111 57.4126 116.214 61.7827 115.673Z" fill="white"/>
<path d="M61.7827 115.673L89.4868 112.24C93.8569 111.699 96.9607 107.717 96.4194 103.347C95.8779 98.9771 91.8961 95.8736 87.526 96.4148L59.8216 99.8476C55.4515 100.389 52.348 104.371 52.8895 108.741C53.431 113.111 57.4126 116.214 61.7827 115.673Z" stroke="black" stroke-width="2" stroke-miterlimit="10"/>
<path d="M66.6106 131.787L94.315 128.354C98.6851 127.813 101.789 123.831 101.248 119.461C100.706 115.091 96.7242 111.988 92.3541 112.529L64.6497 115.962C60.2796 116.503 57.1761 120.485 57.7176 124.855C58.2591 129.225 62.2405 132.329 66.6106 131.787Z" fill="white"/>
<path d="M66.6106 131.787L94.315 128.354C98.6851 127.813 101.789 123.831 101.248 119.461C100.706 115.091 96.7242 111.988 92.3541 112.529L64.6497 115.962C60.2796 116.503 57.1761 120.485 57.7176 124.855C58.2591 129.225 62.2405 132.329 66.6106 131.787Z" stroke="black" stroke-width="2" stroke-miterlimit="10"/>
<path d="M121.754 147.409H74.0135C69.3956 147.409 65.6172 143.631 65.6172 139.013V41.2691C65.6172 36.651 69.3956 32.8726 74.0135 32.8726H121.754C126.372 32.8726 130.151 36.651 130.151 41.2691V139.013C130.151 143.631 126.372 147.409 121.754 147.409Z" fill="white"/>
<path d="M121.754 147.409H74.0135C69.3956 147.409 65.6172 143.631 65.6172 139.013V41.2691C65.6172 36.651 69.3956 32.8726 74.0135 32.8726H121.754C126.372 32.8726 130.151 36.651 130.151 41.2691V139.013C130.151 143.631 126.372 147.409 121.754 147.409Z" stroke="black" stroke-width="2" stroke-miterlimit="10"/>
<path d="M124.833 140.366H74.3279H70.9375V44.7104H124.833V140.366Z" fill="white"/>
<path d="M124.833 140.366H74.3279H70.9375V44.7104H124.833V140.366Z" stroke="black" stroke-width="2" stroke-miterlimit="10"/>
<path d="M92.2812 38.7168H103.49" stroke="black" stroke-width="2" stroke-miterlimit="10" stroke-linecap="round"/>
<path d="M115.176 94.4427C115.176 104.253 107.414 112.166 97.8888 112.166C88.3636 112.166 80.6016 104.253 80.6016 94.4427C80.6016 84.6322 88.3636 76.7197 97.8888 76.7197C107.414 76.7197 115.176 84.6322 115.176 94.4427Z" fill="#40744D" stroke="white" stroke-width="2"/>
<path d="M116.176 94.4427C116.176 104.783 107.988 113.166 97.8888 113.166C87.7893 113.166 79.6016 104.783 79.6016 94.4427C79.6016 84.1022 87.7893 75.7197 97.8888 75.7197C107.988 75.7197 116.176 84.1022 116.176 94.4427Z" stroke="white" stroke-width="2" stroke-miterlimit="10"/>
<path d="M89.125 96.7113L94.632 102.841L107.22 85.9712" stroke="white" stroke-width="2" stroke-linecap="round" stroke-linejoin="round"/>
<path d="M126.209 155.52C118.84 147.409 119.347 134.56 122.176 128.901C123.17 126.912 124.382 125.318 124.833 123.016C125.913 117.507 124.943 111.734 124.691 106.162C124.461 101.062 124.828 95.7033 127.15 91.2073C128.585 88.4263 131.214 85.4889 134.656 85.8823C138.403 86.3105 140.899 90.0855 142.176 93.2914C144.211 98.4018 144.844 104.27 146.032 109.627C147.324 115.448 148.64 121.265 149.707 127.133C151.326 136.036 152.632 145.23 152.234 154.283" fill="white"/>
<path d="M126.209 155.52C118.84 147.409 119.347 134.56 122.176 128.901C123.17 126.912 124.382 125.318 124.833 123.016C125.913 117.507 124.943 111.734 124.691 106.162C124.461 101.062 124.828 95.7033 127.15 91.2073C128.585 88.4263 131.214 85.4889 134.656 85.8823C138.403 86.3105 140.899 90.0855 142.176 93.2914C144.211 98.4018 144.844 104.27 146.032 109.627C147.324 115.448 148.64 121.265 149.707 127.133C151.326 136.036 152.632 145.23 152.234 154.283" stroke="black" stroke-width="2" stroke-linecap="round" stroke-linejoin="round"/>
</g>
</g>
</svg>
