<svg width="20" height="20" viewBox="0 0 20 20" fill="none" xmlns="http://www.w3.org/2000/svg">
<g clip-path="url(#clip0_6599_20916)">
<path d="M10.0026 0.833496C4.93619 0.833496 0.835938 4.93329 0.835938 10.0002C0.835938 15.0665 4.93573 19.1668 10.0026 19.1668C15.069 19.1668 19.1693 15.067 19.1693 10.0002C19.1693 4.93375 15.0695 0.833496 10.0026 0.833496ZM10.0026 17.8878C5.65338 17.8878 2.11501 14.3494 2.11501 10.0002C2.11501 5.6509 5.65338 2.11257 10.0026 2.11257C14.3519 2.11257 17.8902 5.6509 17.8902 10.0002C17.8902 14.3494 14.3519 17.8878 10.0026 17.8878Z" fill="#696969"/>
<path d="M9.72952 12.4321C9.22274 12.4321 8.8125 12.8544 8.8125 13.3612C8.8125 13.8559 9.21068 14.2903 9.72952 14.2903C10.2484 14.2903 10.6586 13.8559 10.6586 13.3612C10.6586 12.8544 10.2363 12.4321 9.72952 12.4321Z" fill="#696969"/>
<path d="M9.88484 5.39746C8.2559 5.39746 7.50781 6.36279 7.50781 7.01434C7.50781 7.48492 7.90599 7.70213 8.23176 7.70213C8.88335 7.70213 8.61791 6.773 9.84864 6.773C10.4519 6.773 10.9346 7.03847 10.9346 7.59352C10.9346 8.24507 10.2589 8.61911 9.86071 8.95696C9.51076 9.25856 9.05229 9.75331 9.05229 10.791C9.05229 11.4184 9.22123 11.5994 9.7159 11.5994C10.3071 11.5994 10.4278 11.334 10.4278 11.1047C10.4278 10.4773 10.4399 10.1153 11.1035 9.59644C11.4293 9.34307 12.4549 8.52254 12.4549 7.38835C12.4549 6.25415 11.4293 5.39746 9.88484 5.39746Z" fill="#696969"/>
</g>
<defs>
<clipPath id="clip0_6599_20916">
<rect width="20" height="20" fill="white"/>
</clipPath>
</defs>
</svg>
