<svg width="24" height="24" viewBox="0 0 24 24" fill="none" xmlns="http://www.w3.org/2000/svg">
<path fill-rule="evenodd" clip-rule="evenodd" d="M12.0001 17.1617L16.6407 19.7346L15.7575 14.2828L19.5664 10.3775L14.3079 9.57758L12.0003 4.65749L9.6927 9.57758L4.43421 10.3775L8.24303 14.2828L7.3599 19.7345L12.0001 17.1617ZM2.53292 9.14952L8.67491 8.21516L11.4334 2.3337C11.5334 2.10845 11.7667 2 12.0001 2C12.2334 2 12.4672 2.10845 12.5672 2.3337L15.3257 8.21516L21.4676 9.14952C21.981 9.24129 22.1702 9.84612 21.826 10.209L17.3591 14.789L18.4092 21.2712C18.5017 21.7884 17.9408 22.1671 17.4924 21.9219L12.0001 18.8769L6.50813 21.9219C6.06727 22.1696 5.49808 21.7942 5.59141 21.2712L6.64147 14.789L2.17457 10.209C1.83038 9.84612 2.01873 9.24129 2.53292 9.14952Z" fill="#292D32"/>
</svg>
