<svg width="18" height="20" viewBox="0 0 18 20" fill="none" xmlns="http://www.w3.org/2000/svg">
<path d="M11.2566 14.2508L11.6276 14.4674L11.8976 14.1332C12.4827 13.4088 13.3584 12.9531 14.3315 12.9531C16.065 12.9531 17.5001 14.4088 17.5 16.2269C17.5 18.0445 16.065 19.5 14.3314 19.5C12.5975 19.5 11.1624 18.0445 11.1624 16.2269C11.1624 15.8418 11.2276 15.4728 11.3462 15.1297L11.4803 14.7416L11.1257 14.5346L6.74396 11.976L6.37292 11.7594L6.10291 12.0936C5.51793 12.8177 4.64236 13.2733 3.66955 13.2733C1.93534 13.2733 0.5 11.8178 0.5 10.0002C0.5 8.18257 1.93534 6.72705 3.66955 6.72705C4.64237 6.72705 5.51801 7.1827 6.10297 7.90683L6.37302 8.24112L6.74409 8.02439L11.1258 5.46522L11.4803 5.25816L11.3462 4.87011C11.2276 4.52711 11.1624 4.15818 11.1624 3.77308C11.1624 1.95545 12.5976 0.5 14.3315 0.5C16.0651 0.5 17.5001 1.95539 17.4999 3.77313V3.77317C17.4999 5.5917 16.0647 7.04748 14.3313 7.04748C13.3582 7.04748 12.4823 6.59153 11.8974 5.86701L11.6273 5.53256L11.2562 5.74936L6.87475 8.30843L6.52027 8.51547L6.65434 8.90348C6.77287 9.2465 6.83808 9.61537 6.83808 10.0003C6.83808 10.3853 6.77287 10.7542 6.65434 11.0972L6.52025 11.4853L6.87481 11.6923L11.2566 14.2508ZM17.2162 3.77308C17.2162 2.15781 15.9357 0.820335 14.3315 0.820335C12.7271 0.820335 11.4463 2.15773 11.4463 3.77308C11.4463 5.38889 12.7268 6.72705 14.3315 6.72705C15.9359 6.72705 17.2162 5.38881 17.2162 3.77308ZM0.783954 10.0003C0.783954 11.6157 2.06506 12.9531 3.66964 12.9531C5.27381 12.9531 6.55429 11.6155 6.55429 10.0003C6.55429 8.38499 5.27391 7.04748 3.66964 7.04748C2.06506 7.04748 0.783954 8.38478 0.783954 10.0003ZM11.4463 16.227C11.4463 17.8423 12.7271 19.1798 14.3315 19.1798C15.9357 19.1798 17.2162 17.8422 17.2162 16.227C17.2162 14.6115 15.9359 13.2734 14.3315 13.2734C12.7269 13.2734 11.4463 14.6114 11.4463 16.227Z" fill="black" stroke="black"/>
</svg>
