<svg width="128" height="127" viewBox="0 0 128 127" fill="none" xmlns="http://www.w3.org/2000/svg">
<circle cx="64" cy="63.5" r="63.5" fill="#E5F6FF"/>
<path d="M43.2 92.2V74.8C43.2 71.5968 47.1398 69 52 69H38.8C33.9398 69 30 71.5968 30 74.8V92.2C30 95.4032 33.9398 98 38.8 98H52C47.14 98 43.2 95.4033 43.2 92.2Z" fill="#158FCF"/>
<path d="M47.7329 98.1065H36.1714C32.9788 98.1065 30.3906 95.5183 30.3906 92.3257V74.9834C30.3906 71.7908 32.9788 69.2026 36.1714 69.2026H47.7329C50.9255 69.2026 53.5137 71.7908 53.5137 74.9834V92.3257C53.5137 95.5185 50.9255 98.1065 47.7329 98.1065Z" stroke="#158FCF" stroke-width="4" stroke-miterlimit="10" stroke-linecap="round" stroke-linejoin="round"/>
<path d="M64.085 98.1065H87.0423C89.7593 98.1065 92.0138 96.2567 92.6496 93.7132L98.4304 76.3708C98.546 75.9662 98.6038 75.4459 98.6038 74.9834C98.6038 71.804 96.0025 69.2027 92.8231 69.2027H87.3147C84.4888 69.2027 82.0772 67.1596 81.6126 64.3723L80.3323 56.6908C79.8676 53.9033 77.456 51.8604 74.6301 51.8604H70.8561V63.4219C70.8561 66.6145 68.2679 69.2027 65.0754 69.2027H64.085" stroke="#158FCF" stroke-width="4" stroke-miterlimit="10" stroke-linecap="round" stroke-linejoin="round"/>
<path d="M69.989 35.6741L64.4912 33.8877" stroke="#158FCF" stroke-width="4" stroke-miterlimit="10" stroke-linecap="round" stroke-linejoin="round"/>
<path d="M69.9886 35.6743L66.5908 40.3511" stroke="#158FCF" stroke-width="4" stroke-miterlimit="10" stroke-linecap="round" stroke-linejoin="round"/>
<path d="M69.9883 35.6743L73.3861 40.3511" stroke="#158FCF" stroke-width="4" stroke-miterlimit="10" stroke-linecap="round" stroke-linejoin="round"/>
<path d="M69.9883 35.6741L75.4861 33.8877" stroke="#158FCF" stroke-width="4" stroke-miterlimit="10" stroke-linecap="round" stroke-linejoin="round"/>
<path d="M69.9883 35.6741V29.8933" stroke="#158FCF" stroke-width="4" stroke-miterlimit="10" stroke-linecap="round" stroke-linejoin="round"/>
<path d="M46.866 35.6741L41.3682 33.8877" stroke="#158FCF" stroke-width="4" stroke-miterlimit="10" stroke-linecap="round" stroke-linejoin="round"/>
<path d="M46.8656 35.6743L43.4678 40.3511" stroke="#158FCF" stroke-width="4" stroke-miterlimit="10" stroke-linecap="round" stroke-linejoin="round"/>
<path d="M46.8652 35.6743L50.263 40.3511" stroke="#158FCF" stroke-width="4" stroke-miterlimit="10" stroke-linecap="round" stroke-linejoin="round"/>
<path d="M46.8652 35.6741L52.363 33.8877" stroke="#158FCF" stroke-width="4" stroke-miterlimit="10" stroke-linecap="round" stroke-linejoin="round"/>
<path d="M46.8652 35.6741V29.8933" stroke="#158FCF" stroke-width="4" stroke-miterlimit="10" stroke-linecap="round" stroke-linejoin="round"/>
<path d="M93.1121 35.6741L87.6143 33.8877" stroke="#158FCF" stroke-width="4" stroke-miterlimit="10" stroke-linecap="round" stroke-linejoin="round"/>
<path d="M93.1117 35.6743L89.7139 40.3511" stroke="#158FCF" stroke-width="4" stroke-miterlimit="10" stroke-linecap="round" stroke-linejoin="round"/>
<path d="M93.1123 35.6743L96.5101 40.3511" stroke="#158FCF" stroke-width="4" stroke-miterlimit="10" stroke-linecap="round" stroke-linejoin="round"/>
<path d="M93.1123 35.6741L98.6101 33.8877" stroke="#158FCF" stroke-width="4" stroke-miterlimit="10" stroke-linecap="round" stroke-linejoin="round"/>
<path d="M93.1123 35.6741V29.8933" stroke="#158FCF" stroke-width="4" stroke-miterlimit="10" stroke-linecap="round" stroke-linejoin="round"/>
</svg>
