<svg width="14" height="14" viewBox="0 0 14 14" fill="none" xmlns="http://www.w3.org/2000/svg">
<path d="M12.7315 5.95558L10.1259 8.62727L10.7384 12.4085C10.7924 12.7102 10.4652 12.9312 10.2036 12.7881L7 11.0118V1.16699C7.13612 1.16699 7.27224 1.23026 7.33057 1.36165L8.93968 4.7925L12.5225 5.33754C12.822 5.39108 12.9323 5.74389 12.7315 5.95558Z" fill="#C0C0C0"/>
<path d="M6.99744 1.16699V11.0118L3.7938 12.7881C3.53664 12.9326 3.20461 12.7136 3.25905 12.4085L3.87159 8.62727L1.26589 5.95558C1.06512 5.74389 1.17499 5.39108 1.47493 5.33754L5.05776 4.7925L6.66687 1.36165C6.72521 1.23026 6.86133 1.16699 6.99744 1.16699Z" fill="#C0C0C0"/>
</svg>
